<?xml version="1.0" encoding="utf-8"?>
<!-- Generator: Adobe Illustrator 16.0.0, SVG Export Plug-In . SVG Version: 6.00 Build 0)  -->
<!DOCTYPE svg PUBLIC "-//W3C//DTD SVG 1.1//EN" "http://www.w3.org/Graphics/SVG/1.1/DTD/svg11.dtd">
<svg version="1.1" id="Layer_1" xmlns="http://www.w3.org/2000/svg" xmlns:xlink="http://www.w3.org/1999/xlink" x="0px" y="0px"
	 width="355.334px" height="286.667px" viewBox="0 0 355.334 286.667" enable-background="new 0 0 355.334 286.667"
	 xml:space="preserve">
<polyline fill="none" stroke="#FFFFFF" stroke-width="0.5" stroke-linejoin="round" stroke-miterlimit="10" points="25.25,259.751 
	25.25,3.25 352.251,3.25 352.251,259.751 25.25,259.751 "/>
<line fill="none" stroke="#000000" stroke-width="0.3333" stroke-linejoin="round" stroke-miterlimit="10" stroke-dasharray="0.5,4" x1="25.25" y1="259.751" x2="25.25" y2="3.25"/>
<line fill="none" stroke="#000000" stroke-width="0.3333" stroke-linejoin="round" stroke-miterlimit="10" stroke-dasharray="0.5,4" x1="25.25" y1="3.25" x2="25.25" y2="3.25"/>
<line fill="none" stroke="#000000" stroke-width="0.3333" stroke-linejoin="round" stroke-miterlimit="10" stroke-dasharray="0.5,4" x1="71.75" y1="259.751" x2="71.75" y2="106.501"/>
<line fill="none" stroke="#000000" stroke-width="0.3333" stroke-linejoin="round" stroke-miterlimit="10" stroke-dasharray="0.5,4" x1="71.75" y1="3.25" x2="71.75" y2="3.25"/>
<line fill="none" stroke="#000000" stroke-width="0.3333" stroke-linejoin="round" stroke-miterlimit="10" stroke-dasharray="0.5,4" x1="118.25" y1="259.751" x2="118.25" y2="106.001"/>
<line fill="none" stroke="#000000" stroke-width="0.3333" stroke-linejoin="round" stroke-miterlimit="10" stroke-dasharray="0.5,4" x1="118.25" y1="3.25" x2="118.25" y2="3.25"/>
<line fill="none" stroke="#000000" stroke-width="0.3333" stroke-linejoin="round" stroke-miterlimit="10" stroke-dasharray="0.5,4" x1="164.75" y1="259.751" x2="164.75" y2="106.25"/>
<line fill="none" stroke="#000000" stroke-width="0.3333" stroke-linejoin="round" stroke-miterlimit="10" stroke-dasharray="0.5,4" x1="164.75" y1="3.25" x2="164.75" y2="3.25"/>
<line fill="none" stroke="#000000" stroke-width="0.3333" stroke-linejoin="round" stroke-miterlimit="10" stroke-dasharray="0.5,4" x1="212.001" y1="259.751" x2="212.001" y2="107.001"/>
<line fill="none" stroke="#000000" stroke-width="0.3333" stroke-linejoin="round" stroke-miterlimit="10" stroke-dasharray="0.5,4" x1="212.001" y1="3.25" x2="212.001" y2="3.25"/>
<line fill="none" stroke="#000000" stroke-width="0.3333" stroke-linejoin="round" stroke-miterlimit="10" stroke-dasharray="0.5,4" x1="258.501" y1="259.751" x2="258.501" y2="3.25"/>
<line fill="none" stroke="#000000" stroke-width="0.3333" stroke-linejoin="round" stroke-miterlimit="10" stroke-dasharray="0.5,4" x1="258.501" y1="3.25" x2="258.501" y2="3.25"/>
<line fill="none" stroke="#000000" stroke-width="0.3333" stroke-linejoin="round" stroke-miterlimit="10" stroke-dasharray="0.5,4" x1="305.001" y1="259.751" x2="305.001" y2="3.25"/>
<line fill="none" stroke="#000000" stroke-width="0.3333" stroke-linejoin="round" stroke-miterlimit="10" stroke-dasharray="0.5,4" x1="305.001" y1="3.25" x2="305.001" y2="3.25"/>
<line fill="none" stroke="#000000" stroke-width="0.3333" stroke-linejoin="round" stroke-miterlimit="10" stroke-dasharray="0.5,4" x1="352.251" y1="3.25" x2="352.251" y2="3.25"/>
<line fill="none" stroke="#000000" stroke-width="0.3333" stroke-linejoin="round" stroke-miterlimit="10" stroke-dasharray="0.5,4" x1="25.25" y1="239.501" x2="352.251" y2="239.501"/>
<line fill="none" stroke="#000000" stroke-width="0.3333" stroke-linejoin="round" stroke-miterlimit="10" stroke-dasharray="0.5,4" x1="352.251" y1="239.501" x2="352.251" y2="239.501"/>
<line fill="none" stroke="#000000" stroke-width="0.3333" stroke-linejoin="round" stroke-miterlimit="10" stroke-dasharray="0.5,4" x1="25.25" y1="205.75" x2="352.251" y2="205.75"/>
<line fill="none" stroke="#000000" stroke-width="0.3333" stroke-linejoin="round" stroke-miterlimit="10" stroke-dasharray="0.5,4" x1="352.251" y1="205.75" x2="352.251" y2="205.75"/>
<line fill="none" stroke="#000000" stroke-width="0.3333" stroke-linejoin="round" stroke-miterlimit="10" stroke-dasharray="0.5,4" x1="25.25" y1="172" x2="352.251" y2="172"/>
<line fill="none" stroke="#000000" stroke-width="0.3333" stroke-linejoin="round" stroke-miterlimit="10" stroke-dasharray="0.5,4" x1="352.251" y1="172" x2="352.251" y2="172"/>
<line fill="none" stroke="#000000" stroke-width="0.3333" stroke-linejoin="round" stroke-miterlimit="10" stroke-dasharray="0.5,4" x1="25.25" y1="138.25" x2="352.251" y2="138.25"/>
<line fill="none" stroke="#000000" stroke-width="0.3333" stroke-linejoin="round" stroke-miterlimit="10" stroke-dasharray="0.5,4" x1="352.251" y1="138.25" x2="352.251" y2="138.25"/>
<line fill="none" stroke="#000000" stroke-width="0.3333" stroke-linejoin="round" stroke-miterlimit="10" stroke-dasharray="0.5,4" x1="258" y1="104.5" x2="352.251" y2="104.5"/>
<line fill="none" stroke="#000000" stroke-width="0.3333" stroke-linejoin="round" stroke-miterlimit="10" stroke-dasharray="0.5,4" x1="352.251" y1="104.5" x2="352.251" y2="104.5"/>
<line fill="none" stroke="#000000" stroke-width="0.3333" stroke-linejoin="round" stroke-miterlimit="10" stroke-dasharray="0.5,4" x1="259" y1="70.75" x2="352.251" y2="70.75"/>
<line fill="none" stroke="#000000" stroke-width="0.3333" stroke-linejoin="round" stroke-miterlimit="10" stroke-dasharray="0.5,4" x1="352.251" y1="70.75" x2="352.251" y2="70.75"/>
<line fill="none" stroke="#000000" stroke-width="0.3333" stroke-linejoin="round" stroke-miterlimit="10" stroke-dasharray="0.5,4" x1="258" y1="37" x2="352.251" y2="37"/>
<line fill="none" stroke="#000000" stroke-width="0.3333" stroke-linejoin="round" stroke-miterlimit="10" stroke-dasharray="0.5,4" x1="352.251" y1="37" x2="352.251" y2="37"/>
<line fill="none" stroke="#000000" stroke-width="0.3333" stroke-linejoin="round" stroke-miterlimit="10" stroke-dasharray="0.5,4" x1="352.251" y1="3.25" x2="352.251" y2="3.25"/>
<line fill="none" stroke="#000000" stroke-width="0.5" stroke-linejoin="round" stroke-miterlimit="10" x1="25.25" y1="259.751" x2="352.251" y2="259.751"/>
<line fill="none" stroke="#000000" stroke-width="0.5" stroke-linejoin="round" stroke-miterlimit="10" x1="25.25" y1="259.751" x2="25.25" y2="3.25"/>
<line fill="none" stroke="#000000" stroke-width="0.5" stroke-linejoin="round" stroke-miterlimit="10" x1="25.25" y1="259.751" x2="25.25" y2="256.001"/>
<text transform="matrix(1 0 0 1 23 271.001)" font-family="'ArialMT'" font-size="10">1</text>
<line fill="none" stroke="#000000" stroke-width="0.5" stroke-linejoin="round" stroke-miterlimit="10" x1="71.75" y1="259.751" x2="71.75" y2="256.001"/>
<text transform="matrix(1 0 0 1 69.5 271.001)" font-family="'ArialMT'" font-size="10">2</text>
<line fill="none" stroke="#000000" stroke-width="0.5" stroke-linejoin="round" stroke-miterlimit="10" x1="118.25" y1="259.751" x2="118.25" y2="256.001"/>
<text transform="matrix(1 0 0 1 116 271.001)" font-family="'ArialMT'" font-size="10">3</text>
<line fill="none" stroke="#000000" stroke-width="0.5" stroke-linejoin="round" stroke-miterlimit="10" x1="164.75" y1="259.751" x2="164.75" y2="256.001"/>
<text transform="matrix(1 0 0 1 162.5 271.001)" font-family="'ArialMT'" font-size="10">4</text>
<line fill="none" stroke="#000000" stroke-width="0.5" stroke-linejoin="round" stroke-miterlimit="10" x1="212.001" y1="259.751" x2="212.001" y2="256.001"/>
<text transform="matrix(1 0 0 1 209.751 271.001)" font-family="'ArialMT'" font-size="10">5</text>
<line fill="none" stroke="#000000" stroke-width="0.5" stroke-linejoin="round" stroke-miterlimit="10" x1="258.501" y1="259.751" x2="258.501" y2="256.001"/>
<text transform="matrix(1 0 0 1 256.251 271.001)" font-family="'ArialMT'" font-size="10">6</text>
<line fill="none" stroke="#000000" stroke-width="0.5" stroke-linejoin="round" stroke-miterlimit="10" x1="305.001" y1="259.751" x2="305.001" y2="256.001"/>
<text transform="matrix(1 0 0 1 302.751 271.001)" font-family="'ArialMT'" font-size="10">7</text>
<text transform="matrix(1 0 0 1 347.1885 271.001)" font-family="'ArialMT'" font-size="10">8</text>
<line fill="none" stroke="#000000" stroke-width="0.5" stroke-linejoin="round" stroke-miterlimit="10" x1="25.25" y1="239.501" x2="28.25" y2="239.501"/>
<text transform="matrix(1 0 0 1 17 242.501)" font-family="'ArialMT'" font-size="10">1</text>
<line fill="none" stroke="#000000" stroke-width="0.5" stroke-linejoin="round" stroke-miterlimit="10" x1="25.25" y1="205.75" x2="28.25" y2="205.75"/>
<text transform="matrix(1 0 0 1 17 208.75)" font-family="'ArialMT'" font-size="10">2</text>
<line fill="none" stroke="#000000" stroke-width="0.5" stroke-linejoin="round" stroke-miterlimit="10" x1="25.25" y1="172" x2="28.25" y2="172"/>
<text transform="matrix(1 0 0 1 17 175)" font-family="'ArialMT'" font-size="10">3</text>
<line fill="none" stroke="#000000" stroke-width="0.5" stroke-linejoin="round" stroke-miterlimit="10" x1="25.25" y1="138.25" x2="28.25" y2="138.25"/>
<text transform="matrix(1 0 0 1 17 141.25)" font-family="'ArialMT'" font-size="10">4</text>
<line fill="none" stroke="#000000" stroke-width="0.5" stroke-linejoin="round" stroke-miterlimit="10" x1="25.25" y1="104.5" x2="28.25" y2="104.5"/>
<text transform="matrix(1 0 0 1 17 107.5)" font-family="'ArialMT'" font-size="10">5</text>
<line fill="none" stroke="#000000" stroke-width="0.5" stroke-linejoin="round" stroke-miterlimit="10" x1="25.25" y1="70.75" x2="28.25" y2="70.75"/>
<text transform="matrix(1 0 0 1 17 73.75)" font-family="'ArialMT'" font-size="10">6</text>
<line fill="none" stroke="#000000" stroke-width="0.5" stroke-linejoin="round" stroke-miterlimit="10" x1="25.25" y1="37" x2="28.25" y2="37"/>
<text transform="matrix(1 0 0 1 17 40)" font-family="'ArialMT'" font-size="10">7</text>
<text transform="matrix(1 0 0 1 17 11.832)" font-family="'ArialMT'" font-size="10">8</text>
<polygon fill="none" stroke="#000000" stroke-width="2" stroke-miterlimit="10" points="328.251,22.75 338.751,22.75 333.501,14.5 
	"/>
<polygon fill="none" stroke="#0000FF" stroke-width="2" stroke-miterlimit="10" points="320.001,122.5 324.501,117.25 320.001,112 
	315.501,117.25 "/>
<rect x="296.751" y="4.75" fill="none" stroke="#FF0000" stroke-width="2" stroke-miterlimit="10" width="7.5" height="7.5"/>
<polygon fill="none" stroke="#0000FF" stroke-width="2" stroke-miterlimit="10" points="240.501,233.501 243.501,233.501 
	244.251,231.251 245.001,233.501 248.001,233.501 246.501,235.751 248.001,238.001 245.001,238.001 244.251,240.251 
	243.501,238.001 240.501,238.001 242.001,235.751 "/>
<polygon fill="none" stroke="#FF0000" stroke-width="2" stroke-miterlimit="10" points="145.25,136.75 153.5,142 153.5,131.5 "/>
<path fill="none" stroke="#000000" stroke-width="2" stroke-miterlimit="10" d="M73.25,252.251c0,2.485-2.015,4.5-4.5,4.5
	s-4.5-2.015-4.5-4.5c0-2.486,2.015-4.5,4.5-4.5S73.25,249.765,73.25,252.251"/>
<text transform="matrix(1 0 0 1 99.5 283.001)" font-family="'ArialMT'" font-size="10">Number of Models Evaluated (log scale)</text>
<text transform="matrix(-6.123234e-017 -1 1 -6.123234e-017 9.5 208)" font-family="'ArialMT'" font-size="10">Number of GPUs−days (log scale)</text>
<rect x="-29.5" y="-20.75" fill="none" width="421.501" height="315.001"/>
<g>
	<text transform="matrix(1 0 0 1 230.9932 35.4307)" font-family="'NimbusRomNo9L-Regu'" font-size="10">94.51</text>
	<text transform="matrix(1 0 0 1 193.7432 50.4307)" font-family="'NimbusRomNo9L-Regu'" font-size="10">10</text>
	<text transform="matrix(1 0 0 1 230.9932 50.9307)" font-family="'NimbusRomNo9L-Regu'" font-size="10">93.08</text>
	<text transform="matrix(1 0 0 1 192.4932 65.4307)" font-family="'NimbusRomNo9L-Regu'" font-size="10">250</text>
	<text transform="matrix(1 0 0 1 230.7432 64.4307)" font-family="'NimbusRomNo9L-Regu'" font-size="10">94.60</text>
	<text transform="matrix(1 0 0 1 197.2432 78.6807)" font-family="'NimbusRomNo9L-Regu'" font-size="10">1</text>
	<text transform="matrix(1 0 0 1 230.9932 78.6807)" font-family="'NimbusRomNo9L-Regu'" font-size="10">94.47</text>
	<text transform="matrix(1 0 0 1 197.7432 93.0986)" font-family="'NimbusRomNo9L-Regu'" font-size="10">5</text>
	<text transform="matrix(1 0 0 1 230.9932 93.0986)" font-family="'NimbusRomNo9L-Regu'" font-size="10">94.80</text>
	<line fill="none" stroke="#000000" stroke-width="0.398" stroke-miterlimit="10" x1="38" y1="12.623" x2="267.416" y2="12.623"/>
	<text transform="matrix(1 0 0 1 138.8208 22.5854)"><tspan x="0" y="0" font-family="'NimbusRomNo9L-Regu'" font-size="10">#Model</tspan><tspan x="31.51" y="0" font-family="'NimbusRomNo9L-Regu'" font-size="10" letter-spacing="10">s</tspan><tspan x="45.47" y="0" font-family="'NimbusRomNo9L-Regu'" font-size="10">#GPU</tspan><tspan x="68.689" y="0" font-family="'NimbusRomNo9L-Regu'" font-size="10" letter-spacing="10">s</tspan><tspan x="82.65" y="0" font-family="'NimbusRomNo9L-Regu'" font-size="10">Accura</tspan><tspan x="111.33" y="0" font-family="'NimbusRomNo9L-Regu'" font-size="10">c</tspan><tspan x="115.669" y="0" font-family="'NimbusRomNo9L-Regu'" font-size="10">y</tspan></text>
	<line fill="none" stroke="#000000" stroke-width="0.398" stroke-miterlimit="10" x1="39" y1="26.969" x2="267.666" y2="26.969"/>
	<line fill="none" stroke="#000000" stroke-width="0.398" stroke-miterlimit="10" x1="39" y1="97.106" x2="267.416" y2="97.106"/>
	
		<line fill="none" stroke="#000000" stroke-width="0.398" stroke-miterlimit="10" x1="39.5" y1="111.453" x2="267.711" y2="111.453"/>
	<polygon fill="none" stroke="#000000" stroke-width="2" stroke-miterlimit="10" points="41.417,37.25 51.917,37.25 46.667,29 	"/>
	<polygon fill="none" stroke="#0000FF" stroke-width="2" stroke-miterlimit="10" points="46.667,53.25 51.167,48 46.667,42.75 
		42.167,48 	"/>
	<rect x="42.917" y="57.5" fill="none" stroke="#EC2024" stroke-width="2" stroke-miterlimit="10" width="7.5" height="7.5"/>
	<polygon fill="none" stroke="#0000FF" stroke-width="2" stroke-miterlimit="10" points="42.917,72.5 45.917,72.5 46.667,70.25 
		47.417,72.5 50.417,72.5 48.917,74.75 50.417,77 47.417,77 46.667,79.25 45.917,77 42.917,77 44.417,74.75 	"/>
	<polygon fill="none" stroke="#EC2024" stroke-width="2" stroke-miterlimit="10" points="42.492,89.169 50.638,94.579 
		50.843,84.081 	"/>
	<path fill="none" stroke="#000000" stroke-width="2" stroke-miterlimit="10" d="M51.167,104.417c0,2.485-2.016,4.5-4.5,4.5
		s-4.5-2.015-4.5-4.5c0-2.486,2.016-4.5,4.5-4.5S51.167,101.93,51.167,104.417"/>
	<text transform="matrix(1 0 0 1 56.2432 37.5986)" font-family="'NimbusRomNo9L-Regu'" font-size="10">Zoph</text>
	<text transform="matrix(1 0 0 1 143.2432 37.9307)" font-family="'NimbusRomNo9L-Regu'" font-size="10">20, 000</text>
	<text transform="matrix(1 0 0 1 191.4932 36.6807)" font-family="'NimbusRomNo9L-Regu'" font-size="10">800</text>
	<text transform="matrix(1 0 0 1 56.2432 50.6807)" font-family="'NimbusRomNo9L-Regu'" font-size="10">Baker</text>
	<text transform="matrix(1 0 0 1 146.9932 51.4307)" font-family="'NimbusRomNo9L-Regu'" font-size="10">1,500</text>
	<text transform="matrix(1 0 0 1 56.2432 64.4307)" font-family="'NimbusRomNo9L-Regu'" font-size="10">Real</text>
	<text transform="matrix(1 0 0 1 146.9932 64.9307)" font-family="'NimbusRomNo9L-Regu'" font-size="10">1,000</text>
	<text transform="matrix(1 0 0 1 56.2432 78.9307)" font-family="'NimbusRomNo9L-Regu'" font-size="10">Brock</text>
	<text transform="matrix(1 0 0 1 152.2432 79.4307)" font-family="'NimbusRomNo9L-Regu'" font-size="10">300</text>
	<text transform="matrix(1 0 0 1 56.2432 92.9307)" font-family="'NimbusRomNo9L-Regu'" font-size="10">Elsken</text>
	<text transform="matrix(1 0 0 1 155.2432 92.9307)" font-family="'NimbusRomNo9L-Regu'" font-size="10">40</text>
	<text transform="matrix(1 0 0 1 75.0127 107.9307)" font-family="'NimbusRomNo9L-Regu'" font-size="10">Ours</text>
	<text transform="matrix(1 0 0 1 158.2432 107.6807)" font-family="'NimbusRomNo9L-Regu'" font-size="10">7</text>
	<text transform="matrix(1 0 0 1 197.7432 107.9307)" font-family="'NimbusRomNo9L-Regu'" font-size="10">1</text>
	<text transform="matrix(1 0 0 1 230.9932 107.6807)" font-family="'NimbusRomNo9L-Regu'" font-size="10">94.63</text>
	<text transform="matrix(1 0 0 1 85.4932 37.5986)" font-family="'NimbusRomNo9L-Regu'" font-size="10">CVPR, 2018</text>
	<text transform="matrix(1 0 0 1 85.4932 50.6807)" font-family="'NimbusRomNo9L-Regu'" font-size="10">ICLR, 2018</text>
	<text transform="matrix(1 0 0 1 85.4932 64.4307)" font-family="'NimbusRomNo9L-Regu'" font-size="10">ICML, 2018</text>
	<text transform="matrix(1 0 0 1 85.4932 78.9307)" font-family="'NimbusRomNo9L-Regu'" font-size="10">ICLR, 2018</text>
	<text transform="matrix(1 0 0 1 85.4932 92.9307)" font-family="'NimbusRomNo9L-Regu'" font-size="10">ICLR, 2018</text>
</g>
<line fill="none" stroke="#000000" stroke-width="0.5" stroke-linejoin="round" stroke-miterlimit="10" x1="352.75" y1="260.251" x2="352.75" y2="3.75"/>
<line fill="none" stroke="#000000" stroke-width="0.5" stroke-linejoin="round" stroke-miterlimit="10" x1="25.25" y1="3.251" x2="352.251" y2="3.251"/>
<g>
	<text transform="matrix(1 0 0 1 281.668 229.832)" font-family="'NimbusRomNo9L-Regu'" font-size="10">Lower Better</text>
	<g>
		<g>
			<line fill="none" stroke="#000000" stroke-linejoin="round" x1="341.334" y1="177.332" x2="288.845" y2="177.332"/>
			<g>
				<polygon points="290.304,172.346 281.668,177.332 290.304,182.318 				"/>
			</g>
		</g>
	</g>
	<text transform="matrix(1 0 0 1 281.668 192.415)" font-family="'NimbusRomNo9L-Regu'" font-size="10">Lower Better</text>
	<g>
		<g>
			<line fill="none" stroke="#000000" stroke-linejoin="round" x1="341.502" y1="177.5" x2="341.502" y2="229.988"/>
			<g>
				<polygon points="336.516,228.529 341.502,237.164 346.488,228.529 				"/>
			</g>
		</g>
	</g>
</g>
</svg>
